<?xml version="1.0" encoding="UTF-8"?>
<svg width="59px" height="58px" viewBox="0 0 59 58" version="1.1" xmlns="http://www.w3.org/2000/svg" xmlns:xlink="http://www.w3.org/1999/xlink">
    <title>编组 4@3x</title>
    <defs>
        <linearGradient x1="50%" y1="0%" x2="50%" y2="100%" id="linearGradient-1">
            <stop stop-color="#1E3754" offset="0%"></stop>
            <stop stop-color="#507EA8" offset="100%"></stop>
        </linearGradient>
        <linearGradient x1="50%" y1="0%" x2="50%" y2="100%" id="linearGradient-2">
            <stop stop-color="#1E3754" offset="0%"></stop>
            <stop stop-color="#40688D" offset="100%"></stop>
        </linearGradient>
        <path d="M27.4971687,7 C23.6976217,7 20.5436014,3.95785777 20,0 L35,0 C34.4507361,3.95171203 31.2967157,7 27.4971687,7 Z" id="path-3"></path>
        <linearGradient x1="25.3528005%" y1="11.352222%" x2="100%" y2="94.6942149%" id="linearGradient-4">
            <stop stop-color="#FFFFFF" offset="0%"></stop>
            <stop stop-color="#203956" stop-opacity="0.7" offset="100%"></stop>
        </linearGradient>
        <linearGradient x1="50%" y1="0%" x2="50%" y2="99.5733515%" id="linearGradient-5">
            <stop stop-color="#FFFFFF" offset="0%"></stop>
            <stop stop-color="#6B7D91" offset="100%"></stop>
        </linearGradient>
        <linearGradient x1="28.2669114%" y1="0%" x2="50%" y2="100%" id="linearGradient-6">
            <stop stop-color="#FFFFFF" offset="0%"></stop>
            <stop stop-color="#768699" offset="100%"></stop>
        </linearGradient>
    </defs>
    <g id="页面-1" stroke="none" stroke-width="1" fill="none" fill-rule="evenodd">
        <g id="iPhone-8备份-8" transform="translate(-91.000000, -1457.000000)">
            <g id="编组-4" transform="translate(91.000000, 1457.000000)">
                <path d="M54.9487179,46.9103844 L49.3267458,10.1135972 C48.8951959,7.2973035 47.4823133,4.72564544 45.3363871,2.87596099 C43.1963725,1.02030981 40.4592819,0 37.6394284,0 L17.9654819,0 C15.1810982,0 12.4735659,0.996442915 10.3394629,2.81032702 C8.21127157,4.62421113 6.78065406,7.1481354 6.30772265,9.92266208 L0.0650280686,46.8387837 C0.0236465704,47.0834194 0,47.3340218 0,47.5846242 C0,50.0190476 1.96266534,52 4.37461552,52 L11.545438,52 C12.9878788,52 14.1761189,50.8842226 14.3120867,49.4581756 L40.3055792,49.4581756 C40.4356354,50.8782559 41.6297872,52 43.072228,52 L50.6273072,52 C50.8519496,52 51.076592,51.9820998 51.2953228,51.9462995 C53.6777148,51.5763626 55.3152398,49.3149742 54.9487179,46.9103844 L54.9487179,46.9103844 Z" id="路径" fill="url(#linearGradient-1)"></path>
                <g id="路径">
                    <use fill="#D8D8D8" xlink:href="#path-3"></use>
                    <use fill="url(#linearGradient-2)" xlink:href="#path-3"></use>
                </g>
                <path d="M37.6394284,0.5 C40.3393128,0.5 42.9598829,1.47704129 45.0099428,3.25468796 C47.0660018,5.02691119 48.419062,7.49113926 48.8324814,10.1891131 L48.8324814,10.1891131 L54.4544271,46.9857271 C54.6171437,48.0532397 54.3348808,49.0889644 53.747434,49.8987132 C53.161963,50.7057384 52.2729384,51.2885037 51.2145609,51.4528651 C51.0222743,51.4843372 50.8247868,51.5 50.6273072,51.5 L50.6273072,51.5 L43.072228,51.5 C42.4841647,51.5 41.9468294,51.2717729 41.5420127,50.8998525 C41.0284967,50.428066 40.727125,49.724946 40.8064577,48.9581756 L40.8064577,48.9581756 L13.8142818,48.9581756 C13.8868929,49.7285395 13.5859726,50.4312027 13.0735999,50.9019389 C12.669475,51.2732237 12.1333589,51.5 11.545438,51.5 L11.545438,51.5 L4.37461552,51.5 C3.30700295,51.5 2.33917114,51.0609994 1.63801549,50.3533107 C0.935187387,49.6439341 0.5,48.6645306 0.5,47.5846242 C0.5,47.3620269 0.521270012,47.1394596 0.558028722,46.9221525 L0.558028722,46.9221525 L6.80061349,10.0066777 C7.25380599,7.34795244 8.62435435,4.92910518 10.6632764,3.19130579 C12.7067618,1.45444223 15.2992545,0.5 17.9654819,0.5 L17.9654819,0.5 Z" id="路径" stroke="#FFFFFF" opacity="0.201501755"></path>
                <path d="M34.4054201,0.5 C34.0599862,2.13837935 33.2344241,3.58263799 32.0960605,4.64470969 C30.8596455,5.79826157 29.2531645,6.5 27.4971687,6.5 C25.7401266,6.5 24.1327198,5.7989335 22.8966494,4.64483209 C21.7598837,3.58345009 20.9363549,2.13974589 20.5935725,0.5 L20.5935725,0.5 Z" id="路径" stroke="#FFFFFF" opacity="0.202291"></path>
                <rect id="矩形" fill="#FFFFFF" opacity="0.2" x="27" y="7" width="1" height="42"></rect>
                <path d="M27,48.9032844 L14.395055,48.9032844 C12.185916,48.9032844 10.395055,47.1124234 10.395055,44.9032844 C10.395055,44.7778656 10.4009537,44.6525162 10.4127316,44.5276517 L12,27.7 L12,27.7" id="矩形" stroke="#62809D"></path>
                <path d="M46,48.9032844 L33.395055,48.9032844 C31.185916,48.9032844 29.395055,47.1124234 29.395055,44.9032844 C29.395055,44.7778656 29.4009537,44.6525162 29.4127316,44.5276517 L31,27.7 L31,27.7" id="矩形备份-53" stroke="#62809D" transform="translate(37.500000, 38.301642) scale(-1, 1) translate(-37.500000, -38.301642) "></path>
                <path d="M58.2115385,54.1827883 L53.9950594,26.5851979 C53.6713969,24.4729776 52.611735,22.5442341 51.0022903,21.1569707 C49.3972793,19.7652324 47.3444615,19 45.2295713,19 L30.4741114,19 C28.3858236,19 26.3551744,19.7473322 24.7545972,21.1077453 C23.1584537,22.4681583 22.0854905,24.3611015 21.730792,26.4419966 L17.0487711,54.1290878 C17.0177349,54.3125645 17,54.5005164 17,54.6884682 C17,56.5142857 18.471999,58 20.2809616,58 L25.6590785,58 C26.7409091,58 27.6320892,57.163167 27.734065,56.0936317 L47.2291844,56.0936317 C47.3267265,57.1586919 48.2223404,58 49.304171,58 L54.9704804,58 C55.1389622,58 55.307444,57.9865749 55.4714921,57.9597246 C57.2582861,57.6822719 58.4864298,55.9862306 58.2115385,54.1827883 L58.2115385,54.1827883 Z" id="路径" fill-opacity="0.2" fill="#FFFFFF"></path>
                <path d="M45.2295713,19.5 C47.2244924,19.5 49.1607898,20.2219638 50.675846,21.5356977 C52.1954235,22.8454998 53.195263,24.6668134 53.5007949,26.6607138 L53.5007949,26.6607138 L57.7172476,54.258131 C57.8341325,55.0249617 57.6313809,55.7689611 57.2093967,56.3506329 C56.7892693,56.9297452 56.1514158,57.3481543 55.3907302,57.4662902 L55.3907302,57.4662902 L49.304171,57.5 C48.8955672,57.5 48.5223185,57.3412258 48.2410786,57.0828401 C47.8531417,56.7264279 47.6389777,56.1803505 47.7493386,55.5936317 L47.7493386,55.5936317 L27.2177368,55.5936317 C27.3213026,56.1832409 27.1076296,56.7288546 26.7206308,57.0844049 C26.4399015,57.3423214 26.0675214,57.5 25.6590785,57.5 L25.6590785,57.5 L20.2809616,57.5 C19.5148428,57.5 18.8204245,57.1848089 18.3173089,56.6770055 C17.8125208,56.1675141 17.5,55.4640716 17.5,54.6884682 L17.5,54.6884682 L22.2236828,26.5260122 C22.5586425,24.5609186 23.5715365,22.7730524 25.0784107,21.488724 C26.5883703,20.2053315 28.50398,19.5 30.4741114,19.5 L30.4741114,19.5 Z" id="路径" stroke="url(#linearGradient-4)"></path>
                <path d="M44.4054201,19.5 C44.0599862,21.1383794 43.2344241,22.582638 42.0960605,23.6447097 C40.8596455,24.7982616 39.2531645,25.5 37.4971687,25.5 C35.7401266,25.5 34.1327198,24.7989335 32.8966494,23.6448321 C31.7598837,22.5834501 30.9363549,21.1397459 30.5935725,19.5 L30.5935725,19.5 Z" id="路径备份-8" stroke="#FFFFFF"></path>
                <rect id="矩形备份-38" fill="url(#linearGradient-5)" x="37" y="25" width="1" height="31"></rect>
                <path d="M41,55.6032844 L28.395055,55.6032844 C26.185916,55.6032844 24.395055,53.8124234 24.395055,51.6032844 C24.395055,51.4778656 24.4009537,51.3525162 24.4127316,51.2276517 L26,34.4 L26,34.4" id="矩形" stroke="url(#linearGradient-6)"></path>
                <path d="M51,55.6032844 L38.395055,55.6032844 C36.185916,55.6032844 34.395055,53.8124234 34.395055,51.6032844 C34.395055,51.4778656 34.4009537,51.3525162 34.4127316,51.2276517 L36,34.4 L36,34.4" id="矩形" stroke="url(#linearGradient-6)" transform="translate(42.500000, 45.001642) scale(-1, 1) translate(-42.500000, -45.001642) "></path>
                <rect id="矩形备份-32" fill="#FFFFFF" x="42" y="32" width="4" height="2" rx="1"></rect>
            </g>
        </g>
    </g>
</svg>