<?xml version="1.0" encoding="UTF-8"?>
<svg width="30px" height="31px" viewBox="0 0 30 31" version="1.1" xmlns="http://www.w3.org/2000/svg" xmlns:xlink="http://www.w3.org/1999/xlink">
    <title>路径3@3x</title>
    <g id="页面-1" stroke="none" stroke-width="1" fill="none" fill-rule="evenodd">
        <g id="iPhone-8备份-4" transform="translate(-706.000000, -252.000000)" fill="#FF930A" fill-rule="nonzero">
            <path d="M734.269896,260.030276 C734.023276,260.030276 733.800971,260.130339 733.637716,260.291156 C733.627295,260.301877 733.623822,260.298303 733.627295,260.284008 L727.524331,265.948322 L722.553731,255.702526 C722.321006,255.384466 721.952813,255.184339 721.535992,255.184339 C721.0497,255.184339 720.625931,255.466661 720.410573,255.877637 L715.523338,265.948322 L709.225856,260.10175 C709.093863,260.026702 708.941028,259.983818 708.777773,259.983818 C708.274114,259.983818 707.867712,260.405514 707.867712,260.920127 C707.867712,260.963011 707.860765,260.984453 707.846871,260.984453 L709.795513,275.961828 C709.795513,275.904649 709.792039,275.847469 709.785092,275.786717 C709.903192,276.830237 710.587474,277.695072 711.507955,278.052442 C711.424591,278.020279 711.341227,277.995263 711.264809,277.980968 C713.220398,278.735019 717.058632,279.224615 721.480415,279.181731 C725.92304,279.14242 729.796009,278.577776 731.779386,277.780841 C731.706442,277.795136 731.630025,277.816578 731.54666,277.848741 C732.467142,277.487798 733.151424,276.622962 733.269524,275.579442 C733.255629,275.700948 733.255629,275.815306 733.262576,275.918943 L735.197324,261.02019 C735.190377,261.013043 735.18343,260.991601 735.18343,260.959437 C735.18343,260.451972 734.777029,260.030276 734.269896,260.030276 Z" id="路径3" transform="translate(721.522098, 267.184339) scale(-1, 1) rotate(-45.000000) translate(-721.522098, -267.184339) "></path>
        </g>
    </g>
</svg>