<?xml version="1.0" encoding="UTF-8"?>
<svg width="24px" height="28px" viewBox="0 0 24 28" version="1.1" xmlns="http://www.w3.org/2000/svg" xmlns:xlink="http://www.w3.org/1999/xlink">
    <title>路径@3x</title>
    <g id="页面-1" stroke="none" stroke-width="1" fill="none" fill-rule="evenodd">
        <g id="iPhone-8备份-5" transform="translate(-406.000000, -341.000000)" fill="#8EA0C0" fill-rule="nonzero">
            <path d="M414.941249,369 C414.941249,369 401.757212,366.044923 407.407825,352.753538 C408.062336,353.322154 408.459407,354.317231 408.767027,354.896615 C409.478262,347.926769 415.004518,347.250462 414.210378,341 C416.346266,341.717231 423.081187,343.838769 424.130586,351.64 C425.13417,349.858769 426.68318,348.911077 427.856937,348.723692 C427.562407,350.123692 428.042381,352.538154 429.113598,355.008615 C430.76733,358.831692 430.872051,366.441231 422.540124,368.414154 C423.796785,365.646462 424.298577,361.162154 418.019633,357.358462 C416.906964,362.168 411.299985,363.447385 414.941249,369" id="路径"></path>
        </g>
    </g>
</svg>