<?xml version="1.0" encoding="UTF-8"?>
<svg width="38px" height="34px" viewBox="0 0 38 34" version="1.1" xmlns="http://www.w3.org/2000/svg" xmlns:xlink="http://www.w3.org/1999/xlink">
    <title>编组@3x</title>
    <defs>
        <filter color-interpolation-filters="auto" id="filter-1">
            <feColorMatrix in="SourceGraphic" type="matrix" values="0 0 0 0 0.556863 0 0 0 0 0.627451 0 0 0 0 0.752941 0 0 0 1.000000 0"></feColorMatrix>
        </filter>
    </defs>
    <g id="页面-1" stroke="none" stroke-width="1" fill="none" fill-rule="evenodd">
        <g id="编组" transform="translate(-96.000000, -842.000000)" filter="url(#filter-1)">
            <g transform="translate(96.000000, 842.000000)">
                <path d="M12.2763636,14.0618557 C13.8581818,14.0618557 15.2290909,12.7628866 15.2290909,11.0309278 C15.2290909,9.40721649 13.9636364,8 12.2763636,8 C10.6945455,8 9.32363636,9.29896907 9.32363636,11.0309278 C9.42909091,12.7628866 10.6945455,14.0618557 12.2763636,14.0618557 Z M25.3527273,12.2216495 L16.8109091,24.6701031 L12.3818182,18.2835052 L5,29 L34,29 L25.3527273,12.2216495 Z" id="形状" fill="#000000" fill-rule="nonzero"></path>
                <path d="M36.5139665,0 L1.48603352,0 C0.636871508,0 0,0.643533123 0,1.50157729 L0,32.4984227 C0,33.3564669 0.636871508,34 1.48603352,34 L36.5139665,34 C37.3631285,34 38,33.3564669 38,32.4984227 L38,1.50157729 C38,0.643533123 37.3631285,0 36.5139665,0 Z M35.027933,30.9968454 L2.97206704,30.9968454 L2.97206704,2.89589905 L35.1340782,2.89589905 L35.1340782,30.9968454 L35.027933,30.9968454 Z" id="形状" fill="#000000" fill-rule="nonzero"></path>
            </g>
        </g>
    </g>
</svg>