<?xml version="1.0" encoding="UTF-8"?>
<svg width="30px" height="28px" viewBox="0 0 30 28" version="1.1" xmlns="http://www.w3.org/2000/svg" xmlns:xlink="http://www.w3.org/1999/xlink">
    <title>形状@3x</title>
    <g id="页面-1" stroke="none" stroke-width="1" fill="none" fill-rule="evenodd">
        <g id="iPhone-8备份-5" transform="translate(-60.000000, -341.000000)" fill="#8EA0C0" fill-rule="nonzero">
            <path d="M89.8618116,341.517432 C89.7244742,341.278351 89.4987904,341.104463 89.2346033,341.034171 C88.9704162,340.96388 88.6894611,341.002967 88.4537878,341.142801 L60.5091155,357.647355 C60.1437636,357.863611 59.9466796,358.284517 60.0125773,358.707795 C60.0784751,359.131073 60.3938807,359.470179 60.8072181,359.562146 L69.4917121,361.518548 C69.831826,361.596638 70.1878441,361.494762 70.4372801,361.247971 L82.9964284,348.7603 L74.3838508,361.112682 C74.1869098,361.396995 74.1430126,361.762042 74.2668211,362.085898 C74.3906296,362.409754 74.6658262,362.649735 75.0004948,362.725688 L85.0108224,364.983875 C85.2793285,365.032294 85.5558312,364.970666 85.7794402,364.812563 C86.0030491,364.654461 86.1554261,364.412849 86.2030154,364.140935 L89.9851785,342.21468 C90.0258481,341.97482 89.9822052,341.728113 89.8618388,341.517459 L89.8618116,341.517432 Z M76.59798,365.404929 L73.5694952,365.004143 C73.4142711,364.984217 73.2585157,365.036889 73.1478414,365.146735 C73.0371671,365.256581 72.9840975,365.411171 73.0041738,365.565233 L73.4281649,368.571054 C73.455686,368.759037 73.5879625,368.915401 73.7697439,368.974835 C73.9515253,369.034268 74.1515377,368.986545 74.2862382,368.851599 L76.8604316,366.226507 C76.9908035,366.090888 77.0339869,365.894378 76.972354,365.717194 C76.910721,365.54001 76.7545841,365.411799 76.5676797,365.384898 L76.59798,365.404929 Z" id="形状"></path>
        </g>
    </g>
</svg>