<?xml version="1.0" encoding="UTF-8"?>
<svg width="61px" height="64px" viewBox="0 0 61 64" version="1.1" xmlns="http://www.w3.org/2000/svg" xmlns:xlink="http://www.w3.org/1999/xlink">
    <title>编组 3@3x</title>
    <defs>
        <linearGradient x1="50%" y1="0%" x2="50%" y2="100%" id="linearGradient-1">
            <stop stop-color="#1E3754" offset="0%"></stop>
            <stop stop-color="#507EA8" offset="100%"></stop>
        </linearGradient>
        <rect id="path-2" x="0" y="4" width="45" height="50" rx="2"></rect>
        <filter x="-23.3%" y="-15.0%" width="146.7%" height="142.0%" filterUnits="objectBoundingBox" id="filter-3">
            <feOffset dx="0" dy="3" in="SourceAlpha" result="shadowOffsetOuter1"></feOffset>
            <feGaussianBlur stdDeviation="3" in="shadowOffsetOuter1" result="shadowBlurOuter1"></feGaussianBlur>
            <feColorMatrix values="0 0 0 0 0.141176471   0 0 0 0 0.250980392   0 0 0 0 0.368627451  0 0 0 0.2 0" type="matrix" in="shadowBlurOuter1"></feColorMatrix>
        </filter>
        <linearGradient x1="50%" y1="0%" x2="50%" y2="100%" id="linearGradient-4">
            <stop stop-color="#1E3754" offset="0%"></stop>
            <stop stop-color="#40688D" offset="100%"></stop>
        </linearGradient>
        <linearGradient x1="50%" y1="0%" x2="50%" y2="100%" id="linearGradient-5">
            <stop stop-color="#1E3754" offset="0%"></stop>
            <stop stop-color="#40688D" offset="100%"></stop>
        </linearGradient>
        <rect id="path-6" x="16" y="18" width="35" height="40" rx="2"></rect>
        <filter x="-20.0%" y="-12.5%" width="140.0%" height="135.0%" filterUnits="objectBoundingBox" id="filter-7">
            <feOffset dx="0" dy="2" in="SourceAlpha" result="shadowOffsetOuter1"></feOffset>
            <feGaussianBlur stdDeviation="2" in="shadowOffsetOuter1" result="shadowBlurOuter1"></feGaussianBlur>
            <feComposite in="shadowBlurOuter1" in2="SourceAlpha" operator="out" result="shadowBlurOuter1"></feComposite>
            <feColorMatrix values="0 0 0 0 0.117647059   0 0 0 0 0.215686275   0 0 0 0 0.329411765  0 0 0 0.1 0" type="matrix" in="shadowBlurOuter1"></feColorMatrix>
        </filter>
        <linearGradient x1="11.71875%" y1="0%" x2="88.28125%" y2="100%" id="linearGradient-8">
            <stop stop-color="#FFFFFF" offset="0%"></stop>
            <stop stop-color="#203956" stop-opacity="0.7" offset="100%"></stop>
        </linearGradient>
        <linearGradient x1="50%" y1="0%" x2="50%" y2="99.5733515%" id="linearGradient-9">
            <stop stop-color="#FFFFFF" offset="0%"></stop>
            <stop stop-color="#6B7D91" offset="100%"></stop>
        </linearGradient>
    </defs>
    <g id="页面-1" stroke="none" stroke-width="1" fill="none" fill-rule="evenodd">
        <g id="iPhone-8备份-8" transform="translate(-89.000000, -830.000000)">
            <g id="编组-3" transform="translate(95.000000, 830.000000)">
                <g id="矩形">
                    <use fill="black" fill-opacity="1" filter="url(#filter-3)" xlink:href="#path-2"></use>
                    <use fill="url(#linearGradient-1)" fill-rule="evenodd" xlink:href="#path-2"></use>
                </g>
                <rect id="矩形备份-11" stroke="#FFFFFF" opacity="0.204530262" x="0.5" y="4.5" width="44" height="49" rx="2"></rect>
                <path d="M23.2459377,0.835450181 L33.5124859,12.3339842 C33.8803163,12.7459542 33.844534,13.3781073 33.432564,13.7459377 C33.2493046,13.9095621 33.0122248,14 32.7665483,14 L12.2334517,14 C11.681167,14 11.2334517,13.5522847 11.2334517,13 C11.2334517,12.7543234 11.3238896,12.5172436 11.4875141,12.3339842 L21.7540623,0.835450181 C22.1218927,0.423480186 22.7540458,0.387697936 23.1660158,0.755528289 C23.1941418,0.78064086 23.2208251,0.807324101 23.2459377,0.835450181 Z" id="三角形" fill="url(#linearGradient-4)" transform="translate(22.500000, 7.000000) rotate(-180.000000) translate(-22.500000, -7.000000) "></path>
                <path d="M22.4717433,1.00226503 L33.1395171,12.6669921 C33.2314747,12.7699846 33.2729807,12.9005 33.2657492,13.0282567 C33.2585177,13.1560133 33.2025486,13.2810112 33.0995561,13.3729688 C33.0079264,13.4547811 32.8893866,13.5 32.7665483,13.5 L32.7665483,13.5 L12.2334517,13.5 C12.0953806,13.5 11.9703806,13.4440356 11.8798984,13.3535534 C11.7894161,13.2630712 11.7334517,13.1380712 11.7334517,13 C11.7334517,12.8771617 11.7786707,12.7586218 11.8604829,12.6669921 L11.8604829,12.6669921 L22.1270312,1.16845807 C22.2189888,1.06546557 22.3439867,1.00949654 22.4717433,1.00226503 L22.4717433,1.00226503 Z" id="三角形备份-3" stroke="#FFFFFF" opacity="0.204530262" transform="translate(22.500000, 7.000000) rotate(-180.000000) translate(-22.500000, -7.000000) "></path>
                <path d="M22.4017171,12.7518005 L12.2478352,0.8250186 C11.8898191,0.404491692 11.2586852,0.353816711 10.8381583,0.711832863 C10.8178203,0.729147677 10.7981842,0.747270392 10.7792971,0.766157405 L5.65260741,5.89284713 C5.28402853,6.26142601 5.26038534,6.851304 5.59828287,7.2481995 L15.7521648,19.1749814 C16.1101809,19.5955083 16.7413148,19.6461833 17.1618417,19.2881671 C17.1821797,19.2708523 17.2018158,19.2527296 17.2207029,19.2338426 L22.3473926,14.1071529 C22.7159715,13.738574 22.7396147,13.148696 22.4017171,12.7518005 Z" id="矩形备份-17" fill="url(#linearGradient-5)"></path>
                <path d="M11.1179962,1.13456513 L22.0210015,13.0759233 L16.880891,18.8665476 L5.97899853,6.92407671 L11.1179962,1.13456513 Z" id="矩形备份-18" stroke="#FFFFFF" opacity="0.204530262"></path>
                <path d="M39.4017171,12.7518005 L29.2478352,0.8250186 C28.8898191,0.404491692 28.2586852,0.353816711 27.8381583,0.711832863 C27.8178203,0.729147677 27.7981842,0.747270392 27.7792971,0.766157405 L22.6526074,5.89284713 C22.2840285,6.26142601 22.2603853,6.851304 22.5982829,7.2481995 L32.7521648,19.1749814 C33.1101809,19.5955083 33.7413148,19.6461833 34.1618417,19.2881671 C34.1821797,19.2708523 34.2018158,19.2527296 34.2207029,19.2338426 L39.3473926,14.1071529 C39.7159715,13.738574 39.7396147,13.148696 39.4017171,12.7518005 Z" id="矩形备份-21" fill="url(#linearGradient-5)" transform="translate(31.000000, 10.000000) scale(-1, 1) translate(-31.000000, -10.000000) "></path>
                <path d="M28.1179962,1.13456513 L39.0210015,13.0759233 L33.880891,18.8665476 L22.9789985,6.92407671 L28.1179962,1.13456513 Z" id="矩形备份-25" stroke="#FFFFFF" opacity="0.204530262" transform="translate(31.000000, 10.000000) scale(-1, 1) translate(-31.000000, -10.000000) "></path>
                <g id="矩形">
                    <use fill="black" fill-opacity="1" filter="url(#filter-7)" xlink:href="#path-6"></use>
                    <use fill-opacity="0.2" fill="#FFFFFF" fill-rule="evenodd" xlink:href="#path-6"></use>
                </g>
                <path d="M34.2219882,15.753379 L43.3785907,25.3080946 C43.7607195,25.7068377 43.7472509,26.3398594 43.3485079,26.7219882 C43.1623414,26.9003977 42.914455,27 42.6566025,27 L24.3433975,27 C23.7911128,27 23.3433975,26.5522847 23.3433975,26 C23.3433975,25.7421475 23.4429998,25.4942611 23.6214093,25.3080946 L32.7780118,15.753379 C33.1601406,15.3546359 33.7931623,15.3411674 34.1919054,15.7232962 C34.2021452,15.7331093 34.2121751,15.7431392 34.2219882,15.753379 Z" id="三角形备份" fill-opacity="0.1" fill="#FFFFFF" transform="translate(33.500000, 21.000000) rotate(-180.000000) translate(-33.500000, -21.000000) "></path>
                <path d="M34.2928932,25.8383478 L24.1616522,15.7071068 C23.7711279,15.3165825 23.137963,15.3165825 22.7474387,15.7071068 L18.7071068,19.7474387 C18.3165825,20.137963 18.3165825,20.7711279 18.7071068,21.1616522 L28.8383478,31.2928932 C29.2288721,31.6834175 29.862037,31.6834175 30.2525613,31.2928932 L34.2928932,27.2525613 C34.6834175,26.862037 34.6834175,26.2288721 34.2928932,25.8383478 Z" id="矩形备份-19" fill-opacity="0.1" fill="#FFFFFF"></path>
                <path d="M48.2928932,25.8383478 L38.1616522,15.7071068 C37.7711279,15.3165825 37.137963,15.3165825 36.7474387,15.7071068 L32.7071068,19.7474387 C32.3165825,20.137963 32.3165825,20.7711279 32.7071068,21.1616522 L42.8383478,31.2928932 C43.2288721,31.6834175 43.862037,31.6834175 44.2525613,31.2928932 L48.2928932,27.2525613 C48.6834175,26.862037 48.6834175,26.2288721 48.2928932,25.8383478 Z" id="矩形备份-22" fill-opacity="0.1" fill="#FFFFFF" transform="translate(40.500000, 23.500000) scale(-1, 1) translate(-40.500000, -23.500000) "></path>
                <rect id="矩形备份-10" stroke="url(#linearGradient-8)" x="16.5" y="18.5" width="34" height="39" rx="2"></rect>
                <path d="M33.4893641,15.9453975 L43.0175966,25.6540473 C43.1131288,25.7537331 43.1592113,25.8827037 43.1564894,26.0106359 C43.1537674,26.1385681 43.1022409,26.2654619 43.0025552,26.3609941 C42.9094719,26.4501989 42.7855287,26.5 42.6566025,26.5 L42.6566025,26.5 L24.3433975,26.5 C24.2053263,26.5 24.0803263,26.4440356 23.9898441,26.3535534 C23.8993619,26.2630712 23.8433975,26.1380712 23.8433975,26 C23.8433975,25.8710737 23.8931986,25.7471306 23.9824034,25.6540473 L23.9824034,25.6540473 L33.1390059,16.0993317 C33.2345381,15.9996459 33.3614319,15.9481195 33.4893641,15.9453975 L33.4893641,15.9453975 Z" id="三角形备份-2" stroke="#FFFFFF" transform="translate(33.500000, 21.000000) rotate(-180.000000) translate(-33.500000, -21.000000) "></path>
                <rect id="矩形" fill="url(#linearGradient-9)" x="33" y="25" width="1" height="33"></rect>
                <rect id="矩形" fill="#FFFFFF" x="39" y="36" width="8" height="2" rx="1"></rect>
                <path d="M23.4545455,15.9142136 C23.5825066,15.9142136 23.7104678,15.9630291 23.8080988,16.0606602 L23.8080988,16.0606602 L33.9393398,26.1919012 C34.0369709,26.2895322 34.0857864,26.4174934 34.0857864,26.5454545 C34.0857864,26.6734157 34.0369709,26.8013769 33.9393398,26.8990079 L33.9393398,26.8990079 L29.8990079,30.9393398 C29.8013769,31.0369709 29.6734157,31.0857864 29.5454545,31.0857864 C29.4174934,31.0857864 29.2895322,31.0369709 29.1919012,30.9393398 L29.1919012,30.9393398 L19.0606602,20.8080988 C18.9630291,20.7104678 18.9142136,20.5825066 18.9142136,20.4545455 L18.9142136,20.4545455 L23.1009921,16.0606602 C23.1986231,15.9630291 23.3265843,15.9142136 23.4545455,15.9142136 Z" id="矩形备份-23" stroke="#FFFFFF"></path>
                <path d="M37.4545455,15.9142136 C37.5825066,15.9142136 37.7104678,15.9630291 37.8080988,16.0606602 L37.8080988,16.0606602 L47.9393398,26.1919012 C48.0369709,26.2895322 48.0857864,26.4174934 48.0857864,26.5454545 C48.0857864,26.6734157 48.0369709,26.8013769 47.9393398,26.8990079 L47.9393398,26.8990079 L43.8990079,30.9393398 C43.8013769,31.0369709 43.6734157,31.0857864 43.5454545,31.0857864 C43.4174934,31.0857864 43.2895322,31.0369709 43.1919012,30.9393398 L43.1919012,30.9393398 L33.0606602,20.8080988 C32.9630291,20.7104678 32.9142136,20.5825066 32.9142136,20.4545455 L32.9142136,20.4545455 L37.1009921,16.0606602 C37.1986231,15.9630291 37.3265843,15.9142136 37.4545455,15.9142136 Z" id="矩形备份-24" stroke="#FFFFFF" transform="translate(40.500000, 23.500000) scale(-1, 1) translate(-40.500000, -23.500000) "></path>
                <circle id="椭圆形" fill="#FFFFFF" cx="33.5" cy="26.5" r="1.5"></circle>
            </g>
        </g>
    </g>
</svg>