<?xml version="1.0" encoding="UTF-8"?>
<svg width="80px" height="36px" viewBox="0 0 80 36" version="1.1" xmlns="http://www.w3.org/2000/svg" xmlns:xlink="http://www.w3.org/1999/xlink">
    <title>编组 2@3x</title>
    <defs>
        <filter color-interpolation-filters="auto" id="filter-1">
            <feColorMatrix in="SourceGraphic" type="matrix" values="0 0 0 0 1.000000 0 0 0 0 1.000000 0 0 0 0 1.000000 0 0 0 1.000000 0"></feColorMatrix>
        </filter>
    </defs>
    <g id="页面-1" stroke="none" stroke-width="1" fill="none" fill-rule="evenodd">
        <g id="iPhone-8备份-7" transform="translate(-338.000000, -301.000000)">
            <g id="编组-2" transform="translate(338.000000, 301.000000)">
                <rect id="矩形备份" fill="#E91F12" x="0" y="0" width="80" height="36" rx="4"></rect>
                <g filter="url(#filter-1)" id="编组">
                    <g transform="translate(10.000000, 7.000000)">
                        <path d="M60.8109542,11.5363657 C60.5097082,11.0071419 60.330589,10.4127827 59.9072164,9.94869411 C59.2314485,9.24849021 58.4091285,8.85767873 57.4402565,8.77625968 C57.236712,8.75997586 57.0250256,8.72740824 56.8214811,8.69484062 C56.5690858,8.65413109 56.4225338,8.5320025 56.4225338,8.23889389 C56.4306755,7.40027759 56.3981084,6.56166129 56.4388173,5.72304499 C56.4958098,4.70530677 56.1375714,3.87483237 55.4618035,3.14206085 C55.258259,2.81638461 54.957013,2.59655316 54.6313418,2.40114742 C54.5173568,2.39300551 54.4603643,2.30344455 54.3952301,2.22202549 C54.1916855,1.9533426 53.8660143,1.87192354 53.5973355,1.70908542 C53.0844032,1.48111206 52.5470456,1.38340919 51.9934045,1.36712538 C51.6107407,1.35898347 51.228077,1.34269966 50.8454132,1.36712538 C50.3976152,1.3915511 50.1370782,1.26942251 50.218496,0.764624347 C50.2347796,0.650637666 50.218496,0.536650984 50.218496,0.422664303 C50.2103542,0.162123316 50.0719439,0.0399947291 49.8195487,0.0481366349 C48.7529753,0.0969880698 47.6864019,-0.0658500466 46.6198284,0.0318528233 C45.9440606,0.088846164 45.9196352,0.113271881 45.927777,0.780908159 C45.9359188,1.22057107 45.7079489,1.35084157 45.3334269,1.36712538 C44.8937707,1.37526728 44.4541145,1.3915511 44.0144583,1.36712538 C43.5422349,1.33455775 43.3468321,1.55438921 43.3468321,2.00219403 C43.3386904,3.05249988 43.3386904,4.10280573 43.3468321,5.15311159 C43.3468321,5.60091641 43.5503767,5.78818024 43.9900329,5.67419356 C44.5029652,5.7393288 45.0158974,5.69047737 45.5288297,5.67419356 C45.7975085,5.66605165 45.9033516,5.75561262 45.8870681,6.04057932 C45.8382174,6.72449941 45.854501,7.4165614 45.8707845,8.1086234 C45.8870681,8.57271203 45.7242324,8.75183396 45.2438673,8.73555015 C44.3075624,8.70298252 43.3712575,8.72740824 42.4349526,8.72740824 C42.0522888,8.72740824 41.7673265,8.85767873 41.7998936,9.27291593 C41.8813114,10.3639313 41.8324607,11.4468048 41.8324607,12.5378202 C41.8324607,12.9530574 41.9790128,13.0507602 42.3616765,13.0426183 C43.3712575,13.0181926 44.3889802,13.0344764 45.3985612,13.0344764 C45.7893667,13.0344764 45.9847695,13.1403212 45.9766277,13.5962679 C45.9522023,16.2179616 45.9929112,18.8396553 45.9440606,21.453207 C45.9359188,21.7870252 46.0091948,21.9498633 46.375575,21.9417214 C47.4095813,21.9254376 48.4354458,21.9254376 49.4694521,21.9824309 C50.2022124,22.0231404 50.2103542,21.9905728 50.2103542,21.2578013 C50.2103542,18.693101 50.218496,16.1284006 50.2022124,13.5718422 C50.2022124,13.1484631 50.3080556,13.0181926 50.73957,13.0263345 C52.2865086,13.0507602 53.8415889,13.0344764 55.3885275,13.0344764 C55.7141987,13.0344764 56.03987,13.0426183 56.2434146,13.3682946 C56.4388173,13.6858289 56.5690858,14.0277889 56.5690858,14.3860328 C56.5690858,15.5258996 56.6179365,16.6657664 56.5365187,17.8056332 C56.5039516,18.2045866 56.3736831,18.3348571 55.9828775,18.3267152 C54.957013,18.3022895 53.9311485,18.3267152 52.905284,18.3104314 C52.6773141,18.3511409 52.6691723,18.5384048 52.6691723,18.7093848 C52.6935977,19.4258725 53.5159177,21.2496594 54.5254986,21.4450651 C54.7616103,21.7300318 55.1279905,21.7056061 55.4373782,21.8114509 C55.6327809,22.0068566 55.9014597,21.9498633 56.1294296,21.9580052 C56.8459064,21.9905728 57.5786668,22.0882757 58.27886,21.7951671 C59.7688061,21.5997613 60.892372,20.0283735 60.892372,18.7175267 C60.892372,16.6576245 60.7702453,14.5977223 60.9737898,12.5378202 C61.0389241,12.1877182 60.9819316,11.8376163 60.8109542,11.5363657 L60.8109542,11.5363657 Z M51.9038449,8.82511111 L51.7898599,8.82511111 C50.1370782,8.89024636 50.1370782,8.89024636 50.1370782,7.18044614 C50.1370782,7.06645945 50.1289364,6.95247277 50.1370782,6.83848609 C50.1777871,6.44767461 49.9416754,5.89402502 50.2429214,5.70676118 C50.6337269,5.4543621 51.2036516,5.60905831 51.6921585,5.64162593 C52.0178298,5.66605165 52.1888072,5.93473454 52.196949,6.24412697 C52.2213743,7.00946611 52.2050908,7.76666335 52.2132326,8.5320025 C52.2132326,8.75183396 52.1155312,8.84139492 51.9038449,8.82511111 L51.9038449,8.82511111 Z M28.162409,21.2578013 C28.7567591,20.2156374 29.3104003,19.1490477 29.7581983,18.0417485 C29.9128921,17.821917 30.140862,17.830059 30.3688319,17.830059 C31.3621293,17.8382009 32.3554267,17.821917 33.3487241,17.8382009 C33.6988207,17.8463428 33.8616563,17.7730656 33.8535145,17.3659703 C33.837231,13.6369775 33.837231,9.90798459 33.8535145,6.17899172 C33.8535145,5.78818024 33.7151042,5.68233546 33.3568658,5.69861928 C32.7869411,5.72304499 32.2088746,5.69047737 31.6389499,5.70676118 C31.3051368,5.72304499 31.1585847,5.62534212 31.1667265,5.25895636 C31.1830101,4.12723145 31.1830101,3.00364845 31.1667265,1.87192354 C31.1585847,1.50553778 31.3051368,1.42411872 31.6389499,1.42411872 C34.4885735,1.43226062 37.3381972,1.44040253 40.1878208,1.42411872 C40.5460592,1.42411872 40.6437606,1.5381054 40.6356188,1.88820735 C40.6193352,3.01993226 40.6193352,4.14351526 40.6356188,5.27524017 C40.6437606,5.5927745 40.5460592,5.72304499 40.2122461,5.70676118 C39.6178961,5.68233546 39.023546,5.71490309 38.4373377,5.69861928 C38.1360918,5.69047737 37.9895397,5.76375452 37.9895397,6.10571457 C37.9976815,9.87541696 37.9976815,13.6451194 37.9895397,17.4066798 C37.9895397,17.740498 38.1035247,17.830059 38.4210541,17.830059 C39.4306351,17.8137751 40.4483578,17.8382009 41.4579388,17.8137751 C41.8406025,17.8056332 42.0034381,17.8951942 41.9871546,18.3185733 C41.9545875,19.3281696 41.9627292,20.3459078 41.9871546,21.3555042 C41.9952964,21.7056061 41.9301621,21.8684442 41.523073,21.8684442 C37.1427944,21.8521604 32.7625158,21.8521604 28.3822371,21.8684442 C27.6494768,21.884728 28.2031179,21.4776328 28.162409,21.2578013 L28.162409,21.2578013 Z" id="形状" fill="#2C2C2C" fill-rule="nonzero"></path>
                        <path d="M29.0719641,0.32165371 C28.8413439,0.593980097 28.6875971,0.898344883 28.5680162,1.22673847 C28.0299024,2.05172723 27.5601205,2.90875439 27.133046,3.78981035 C26.8426353,4.28640552 26.5522247,4.7910103 26.261814,5.27959588 C26.1593161,5.45580707 26.1593161,5.63201826 26.2105651,5.81623905 C26.4668098,6.11259424 26.7401374,6.15264224 26.9792992,5.80822945 C27.133046,5.59197026 27.3295002,5.52789347 27.5857449,5.52789347 C28.5850992,5.52789347 29.5844535,5.53590307 30.5838078,5.52789347 C31.0365068,5.52789347 31.0877557,5.68007586 30.8913014,6.03249824 C30.2848557,7.15384219 29.6784099,8.27518614 29.0975886,9.40453969 C28.6534311,10.2455476 28.2092737,11.0865556 27.7736577,11.9355732 C27.4917885,12.4722163 27.6028279,12.6484275 28.2519811,12.6564371 C28.9438418,12.6644467 29.6442439,12.6564371 30.4642269,12.6564371 C29.8065322,13.7777811 29.208628,14.8030098 28.5936407,15.8362482 C28.4740598,16.0364882 28.2519811,15.9964402 28.0555269,15.9964402 C26.6290981,15.9964402 25.2026693,16.0044498 23.7762405,15.9964402 C22.7427203,15.9884306 22.3327288,15.5078546 22.5035586,14.538693 C22.6231394,13.8418579 23.0160479,13.2411379 23.3235416,12.6083795 C23.4858299,12.2879956 23.6395767,11.959602 23.7933235,11.639218 C24.1606076,10.9744212 24.5108086,10.3096244 24.8866342,9.64482767 C25.0830884,9.30041489 24.8951757,9.27638609 24.5962235,9.28439569 C23.9129044,9.29240529 23.2381267,9.29240529 22.5548075,9.28439569 C21.1881691,9.27638609 20.7952606,8.81983891 21.0942128,7.56233177 C21.1198372,7.45019738 21.1283787,7.33806298 21.1454617,7.23393819 C22.2643968,5.09537509 23.3918735,2.94880239 24.5108086,0.810239287 C24.7670533,0.0813657213 25.3393331,-0.038778273 26.0824427,0.00927932471 C26.9536747,0.0653465221 27.8334481,0.025298524 28.7046801,0.0172889243 C28.9438418,0.00927932471 29.174462,-0.00673987454 29.0719641,0.32165371 L29.0719641,0.32165371 Z" id="路径" fill="#2C2C2C" fill-rule="nonzero"></path>
                        <path d="M28.9040825,10 C29.0415538,9.35361534 29.4539679,8.82842781 29.7460945,8.24668162 C30.072589,7.58413734 30.4334513,6.92967288 30.8286815,6.20249014 L27.2286503,6.20249014 C27.0224432,6.20249014 26.9279317,6.33984688 26.7990523,6.46912381 C26.5155176,6.73575748 26.214799,6.80847575 26,6.38024592 C26.2835347,6.51760266 26.5670694,6.63879978 26.7389086,6.24288918 C26.8420121,6.00049493 27.073995,6.00857474 27.2973859,6.00857474 C28.4057488,6.00857474 29.5141116,6.01665455 30.6224744,6.00049493 C31.0091126,5.99241512 31.0950322,6.08129301 30.8974172,6.41256515 C30.725578,6.71151806 30.5881066,7.02663058 30.4420433,7.33366329 C29.9265257,8.22244219 29.4196001,9.1112211 28.9040825,10 L28.9040825,10 Z" id="路径" fill="#2C2C2C" fill-rule="nonzero"></path>
                        <path d="M26.2152527,21.5307685 C26.0201949,21.9090712 25.7194809,22.0077589 25.2968557,21.9995349 C23.9883431,21.966639 22.6717032,21.983087 21.3631906,21.991311 C20.9649477,21.991311 20.5667047,21.974863 20.1765892,21.8679514 C19.7783462,21.6376801 19.7864736,21.366289 19.9977862,20.9797623 C20.5423225,19.9928855 21.0299669,18.9813368 21.5582484,17.9862361 C21.6557773,17.7970847 21.6882869,17.5256936 21.9808736,17.5010217 C22.249078,17.7806368 22.6066839,17.7559648 22.9399076,17.7559648 C24.484115,17.7641888 26.0283223,17.7641888 27.5725297,17.7477409 C27.9951549,17.7395169 28.117066,17.7970847 27.8813712,18.2411793 C27.3205801,19.3349677 26.6947697,20.3958602 26.2152527,21.5307685 L26.2152527,21.5307685 Z M11.4233717,20.7083712 C11.268951,20.8975225 11.1226576,21.0948979 10.9682369,21.2840493 C9.83039989,22.1969103 8.53001475,21.983087 7.23775702,21.8679514 C6.67696592,21.6130082 6.17306668,21.2758253 5.75044151,20.8317308 C5.40909041,20.2642766 5.19777782,19.6557026 5.10024894,18.9977848 C5.03522968,18.5536902 5.18152301,18.4550026 5.57976596,18.4796745 C6.14868446,18.5043464 6.72573037,18.4632265 7.29464887,18.4961224 C7.70914663,18.5207943 7.79854811,18.3645388 7.79854811,17.9697881 C7.7822933,14.4334797 7.7904207,10.8971713 7.7904207,7.36086291 C7.7904207,4.91011894 7.81480292,2.451151 7.82293033,0.000407030883 C9.0420414,0.000407030883 10.2692799,0.016854977 11.488391,0.000407030883 C11.8378695,-0.00781694217 11.9435258,0.107318681 11.9435258,0.460949522 C11.9353983,6.58780944 11.9353983,12.7064454 11.9353983,18.8333053 C11.9353983,19.5076711 11.6590665,20.0997972 11.4233717,20.7083712 L11.4233717,20.7083712 Z M1.58108165,18.6606019 C1.44291573,18.4467786 1.3047498,18.2411793 1.16658388,18.027356 C0.955271297,17.5092457 0.687066862,17.0158073 0.37822539,16.5552648 C-0.166310888,15.7986593 -0.0200175595,15.0173818 0.183167619,14.1620886 C0.808977969,11.5057453 1.01216315,8.79183422 0.865869819,6.06147517 C0.849615005,5.73251625 0.89025204,5.57626076 1.27224018,5.58448473 C2.39382236,5.60915665 3.52353195,5.60093268 4.64511414,5.58448473 C4.97021042,5.58448473 5.13275857,5.65027651 5.12463116,6.02857928 C5.01084746,9.54021577 4.89706376,13.0436283 4.0274312,16.473025 C3.88926527,17.0158073 3.70233491,17.5339176 3.53978677,18.0684758 C3.51540455,18.0766998 3.49102233,18.0766998 3.4585127,18.0766998 C3.32847418,18.2082834 3.30409196,18.3974347 3.22281789,18.5536902 L3.2309453,18.5454663 C3.03588753,18.6770498 3.01963271,18.931993 2.85708457,19.0882485 C2.7758105,19.1704882 2.70266383,19.2609519 2.62138976,19.3431916 C2.29629348,19.6803745 2.06059867,19.6557026 1.88992312,19.1869362 C1.82490386,19.0060087 1.74362979,18.8004094 1.58108165,18.6606019 L1.58108165,18.6606019 Z" id="形状" fill="#2C2C2C" fill-rule="nonzero"></path>
                        <path d="M57.4369379,2.72227527 C58.1360385,2.00670165 58.954304,1.83178365 59.8917344,2.15776719 C60.5113918,2.56325891 60.9483297,3.0880129 60.9959957,3.86719306 C61.0595503,4.88489777 60.3604496,5.79924184 59.3356317,5.92645493 C58.5650321,6.02186475 57.7785439,6.02981557 57,5.91850412 C57.0079443,5.44145503 57.0397216,4.95645513 57.0158887,4.47940605 C57,3.85129143 57.1032762,3.26293089 57.4369379,2.72227527 L57.4369379,2.72227527 Z" id="路径" fill="#2C2C2C" fill-rule="nonzero"></path>
                        <path d="M17.4119207,19.0922211 C17.2474623,19.2557717 17.1534861,19.4602099 17.0908353,19.6891806 C16.9028829,20.0898795 16.683605,20.0817019 16.393845,19.787311 C15.7986622,19.1821739 15.5010708,18.4053088 15.2348048,17.6120887 C15.172154,17.415828 15.1016719,17.2277449 15.0311897,17.0314843 C14.7022729,15.4368665 14.4125129,13.8340711 14.2793799,12.2067432 C14.1070901,10.1378288 13.9191377,8.07709192 14.036608,6 C15.2348048,6 16.4251704,6.02453258 17.6233673,6.00817753 C17.9757781,6 18.1089111,6.09813033 18.085417,6.49065164 C17.9444527,9.55722436 18.195056,12.5829094 18.9703598,15.5595294 C19.040842,15.8212102 18.9781912,16.0420035 18.8607209,16.2709742 C18.5552982,16.8597562 18.2655381,17.4567157 17.9679467,18.0454976 C17.7330062,18.3562437 17.5528851,18.7078774 17.4119207,19.0922211 L17.4119207,19.0922211 Z" id="路径" fill="#2C2C2C" fill-rule="nonzero"></path>
                        <path d="M2.95,19 C2.96521739,18.5757576 2.97826087,18.1515152 3.05,18 C3.03478261,18.2575758 3.01956522,18.530303 3.00434783,18.7878788 C2.98695652,18.8484848 2.96956522,18.9242424 2.95,19 Z" id="路径" fill="#2C2C2C" fill-rule="nonzero"></path>
                        <path d="M3.74891775,18.5983322 C3.74025974,18.3404304 3.8008658,18.1237929 4,18 C3.99134199,18.2372697 3.9047619,18.433275 3.74891775,18.5983322 Z M2,18.722125 C2.23376623,18.7943375 2.31168831,19.0419233 2.36363636,19.2585608 C2.49350649,19.8053126 2.76190476,19.8053126 3.10822511,19.5886751 C2.82251082,20.1870072 2.55411255,20.0941626 2.29437229,19.5577268 C2.25974026,19.3307733 2.16450216,19.1554 2.03463203,18.9903429 C2.02597403,18.8974982 2.00865801,18.8149697 2,18.722125 L2,18.722125 Z" id="形状" fill="#2C2C2C" fill-rule="nonzero"></path>
                    </g>
                </g>
            </g>
        </g>
    </g>
</svg>