<?xml version="1.0" encoding="UTF-8"?>
<svg width="21px" height="24px" viewBox="0 0 21 24" version="1.1" xmlns="http://www.w3.org/2000/svg" xmlns:xlink="http://www.w3.org/1999/xlink">
    <title>编组@3x</title>
    <g id="页面-1" stroke="none" stroke-width="1" fill="none" fill-rule="evenodd">
        <g id="iPhone-8备份-6" transform="translate(-670.000000, -1196.000000)" fill-rule="nonzero">
            <g id="编组" transform="translate(670.000000, 1196.000000)">
                <path d="M10.7368421,5.72974838 C10.7716247,3.81983224 10.7368421,1.90991613 10.7716247,0 L14.631579,0 C14.5967964,0.318319343 14.6663616,0.671699969 14.7368421,0.990019336 L11.8947368,0.990019336 L11.8947368,16.5175452 C11.9281332,17.1785078 11.756321,17.8335284 11.4032037,18.3914774 C10.8772398,19.2806107 9.96817406,19.8697651 8.94736843,19.9830741 C8.30256224,20.0505621 7.65284004,19.9151933 7.08741419,19.5955549 C6.66636155,19.3473581 6.28100686,19.0290387 6,18.6046129 C6.98215104,19.1351452 8.28100686,19.1351452 9.22837529,18.4985065 C10.1757437,17.9329129 10.7716247,16.8367872 10.7716247,15.7046775 C10.7368421,12.3803162 10.7368421,9.05503232 10.7368421,5.73067104 L10.7368421,5.72974838 Z M17.1231121,4.6336226 C17.6494279,4.95194194 18.2810069,5.23427739 18.8768879,5.37636777 C19.2283753,5.48247421 19.61373,5.48247421 20,5.48247421 L20,6.36638709 C18.9125858,6.11911292 17.8947368,5.48247421 17.1231121,4.6336226 Z" id="形状" fill="#25F4EE"></path>
                <path d="M3.34049903,10.053122 C4.7284406,9.18084443 6.38038845,8.83385763 8,9.0744075 L8,10.0175821 C6.53936983,10.0175821 5.07873968,10.5415679 3.89662717,11.4154853 C2.95765064,12.1135256 2.29719179,13.0220715 1.81001264,14.0700433 C1.32283351,15.0478465 1.11417206,16.1313582 1.11417206,17.2485872 C1.11718653,18.4490025 1.42874449,19.6282968 2.01867409,20.6722654 C2.29719176,21.1616226 2.57480223,21.6500686 2.99212512,22 C2.19286103,21.4404742 1.49702045,20.6722654 0.975366825,19.7992593 C0.279526246,18.6464904 -0.0334659459,17.3187557 0.00282302539,15.9563925 C0.0708647928,14.733455 0.383856961,13.4758889 1.04522304,12.4279171 C1.60496302,11.4593088 2.39318608,10.643778 3.34049903,10.053122 Z" id="路径" fill="#25F4EE"></path>
                <path d="M11.6752095,1 L14.6116671,1 C14.7191099,1.53207813 14.9339954,2.10024506 15.148881,2.59623441 C15.5444199,3.38291577 16.1520079,4.04586609 16.9044025,4.51171572 C16.9754081,4.5478045 17.0118452,4.58296792 17.0118452,4.61813134 C17.7994475,5.46945637 18.8383723,6.10795014 19.9838057,6.35687017 C20.0202428,7.34977426 19.9838057,8.41393052 19.9838057,9.44292338 C18.0312624,9.47330353 16.1213999,8.87588644 14.5406615,7.74027333 C14.5406615,10.1878328 14.5406615,12.6353922 14.5761643,15.0468629 C14.5761643,15.3661098 14.6116671,15.6853567 14.5761643,16.0406923 C14.4707646,17.2280044 14.1040254,18.3780323 13.5017366,19.4099036 C12.9645228,20.2973174 12.2843633,21.1125537 11.4248211,21.715884 C10.3306318,22.5085605 9.01939628,22.9538291 7.66432414,22.9928715 C6.97894613,23.0219032 6.29267446,22.9621757 5.62291149,22.8152037 C4.65592656,22.6023725 3.79638438,22.2479622 3.00784786,21.6807206 L2.93684221,21.6094684 C2.53235981,21.2155478 2.19366088,20.7604578 1.93342017,20.2612286 C1.36070347,19.2331611 1.00287235,17.991337 1.00287232,16.7856017 C0.97024351,15.6675484 1.21603034,14.5587336 1.71853462,13.5570441 C2.22024565,12.5289766 2.93684221,11.5351472 3.86739003,10.86149 C5.08663193,9.93891273 6.59083071,9.44384873 8.12959805,9.4068346 C8.16510087,9.7973337 8.12959805,10.1878328 8.1651009,10.5774065 L8.1651009,12.56414 C7.66432416,12.3864722 7.12711029,12.3864722 6.58989642,12.4928878 C5.98074262,12.5993034 5.37158883,12.8833869 4.94181775,13.3090494 C4.64667373,13.5550073 4.40346839,13.856265 4.22615547,14.1955379 C3.90382717,14.7637048 3.83188721,15.437362 3.90382714,16.0758557 C3.97483279,16.7143495 4.22615545,17.3176799 4.65592656,17.7785058 C4.94181775,18.0977527 5.30058319,18.3457474 5.65841431,18.5946674 C5.94523979,18.9842411 6.33857377,19.3395768 6.76834485,19.5875715 C7.34199584,19.9068183 8.02215529,20.013234 8.66681192,19.9780706 C9.6692997,19.9068184 10.6362846,19.2683246 11.1734985,18.3818361 C11.4976405,17.8067905 11.6701937,17.1600937 11.6752095,16.5015182 L11.6752095,1 Z" id="路径" fill="#000000"></path>
                <path d="M14.4868789,1 C14.808941,1.03605409 15.16741,1 15.5249455,1 C15.5271149,2.13873337 15.8762179,3.2503179 16.5266051,4.18940044 C16.6339591,4.29571377 16.7058397,4.40202713 16.7777202,4.5083405 C16.0262421,4.04795748 15.4175915,3.33889367 15.023649,2.59470022 C14.7734675,2.1343172 14.594233,1.56762082 14.4868789,1 L14.4868789,1 Z M19.8545794,6.38685112 C20.2130485,6.49316446 20.6060575,6.49316446 21,6.49316448 L21,10.4267584 C19.0676278,10.461888 17.0997822,9.78887828 15.5249455,8.65456108 L15.5249455,16.4866192 C15.5541485,17.0828819 15.4937444,17.6801331 15.345711,18.2588165 C14.9881755,20.0300893 13.9146354,21.5896599 12.4471528,22.6527934 C11.6602012,23.1843601 10.8013692,23.6096135 9.87065657,23.8222402 C8.72616949,24.0699966 7.5452754,24.0699966 6.47173528,23.7510565 C5.14708016,23.4321165 3.93071258,22.687923 3,21.6959733 C3.78788506,22.22754 4.64671714,22.6527934 5.61290323,22.8302905 C6.29250078,22.9717335 6.97209833,23.0068631 7.6526294,23.0068631 C9.00552051,22.962106 10.3140086,22.5178304 11.4100197,21.7311029 C12.2324448,21.1292769 12.9129758,20.3138998 13.4852194,19.4282633 C14.0574629,18.4002595 14.486879,17.2308126 14.523286,16.0613658 C14.5590717,15.7316655 14.5590717,15.3991164 14.523286,15.0694161 C14.486879,12.6242091 14.486879,10.1790021 14.4868789,7.76892467 C16.0665682,8.9036372 17.9752118,9.5004899 19.9264599,9.46993822 C19.8545794,8.44193436 19.8545794,7.41485499 19.8545794,6.38685112 Z" id="形状" fill="#FE2C55"></path>
                <path d="M7.94529738,10 C8.27478443,10 8.67051298,10.034448 9,10.068896 L9,14.030419 C8.50533932,13.8572724 7.91174649,13.8219178 7.41708578,13.961523 C6.41996044,14.2126274 5.60516781,14.967037 5.24057876,15.9767325 C4.91109172,16.949436 5.04271448,18.1315471 5.63630729,19 C5.29274796,18.7831044 4.98166133,18.5136462 4.71322744,18.2004432 C4.3501895,17.7145447 4.086944,17.1234891 4.02070248,16.5324335 C3.95204185,15.9014771 4.05497285,15.2629516 4.31749889,14.6912772 C4.48267255,14.3785254 4.71322744,14.0657736 4.97733323,13.8219178 C5.42465817,13.4474136 5.9412266,13.1753987 6.49400593,13.0232675 C6.98866662,12.9190169 7.4506367,12.9190169 7.94529738,13.0921636 L7.94529738,10.0009065 L7.94529738,10 Z" id="路径" fill="#FE2C55"></path>
            </g>
        </g>
    </g>
</svg>